<svg width="100" height="74" viewBox="0 0 100 74" fill="none" xmlns="http://www.w3.org/2000/svg">
<path d="M44.3384 33.7623C45.4811 26.7765 40.7443 20.187 33.7585 19.0442C26.7726 17.9015 20.1831 22.6383 19.0404 29.6241C17.8977 36.61 22.6345 43.1995 29.6203 44.3422C36.6062 45.4849 43.1957 40.7482 44.3384 33.7623Z" fill="#FFDC7B"/>
<path d="M31.693 14.0042C30.8458 14.0042 30.1562 13.3146 30.1562 12.4674V1.53687C30.1562 0.689621 30.8458 0 31.693 0C32.5403 0 33.2299 0.689621 33.2299 1.53687V12.4674C33.2299 13.3146 32.5403 14.0042 31.693 14.0042Z" fill="#FFDC7B"/>
<path d="M31.693 63.391C30.8458 63.391 30.1562 62.7014 30.1562 61.8541V50.9236C30.1562 50.0764 30.8458 49.3867 31.693 49.3867C32.5403 49.3867 33.2299 50.0764 33.2299 50.9236V61.8541C33.2299 62.7014 32.5403 63.391 31.693 63.391Z" fill="#FFDC7B"/>
<path d="M44.2047 19.1862C43.6038 18.5853 43.6038 17.6149 44.2047 17.0139L51.9334 9.28525C52.5344 8.68429 53.5047 8.68429 54.1057 9.28525C54.7067 9.88621 54.7067 10.8566 54.1057 11.4576L46.377 19.1862C45.7761 19.7872 44.8057 19.7872 44.2047 19.1862Z" fill="#FFDC7B"/>
<path d="M9.28525 54.1057C8.68429 53.5048 8.68429 52.5344 9.28525 51.9334L17.0139 44.2047C17.6149 43.6038 18.5853 43.6038 19.1862 44.2047C19.7872 44.8057 19.7872 45.7761 19.1862 46.377L11.4576 54.1057C10.8566 54.7067 9.88621 54.7067 9.28525 54.1057Z" fill="#FFDC7B"/>
<path d="M49.3818 31.6931C49.3818 30.8458 50.0714 30.1562 50.9187 30.1562H61.8492C62.6964 30.1562 63.386 30.8458 63.386 31.6931C63.386 32.5403 62.6964 33.2299 61.8492 33.2299H50.9187C50.0714 33.2299 49.3818 32.5403 49.3818 31.6931Z" fill="#FFDC7B"/>
<path d="M0 31.6931C0 30.8458 0.689621 30.1562 1.53687 30.1562H12.4674C13.3146 30.1562 14.0042 30.8458 14.0042 31.6931C14.0042 32.5403 13.3146 33.2299 12.4674 33.2299H1.53687C0.689621 33.2299 0 32.5403 0 31.6931Z" fill="#FFDC7B"/>
<path d="M44.2047 44.2047C44.8057 43.6038 45.7761 43.6038 46.377 44.2047L54.1057 51.9334C54.7067 52.5344 54.7067 53.5048 54.1057 54.1057C53.5047 54.7067 52.5344 54.7067 51.9334 54.1057L44.2047 46.377C43.6038 45.7761 43.6038 44.8057 44.2047 44.2047Z" fill="#FFDC7B"/>
<path d="M9.28525 9.28525C9.88621 8.68429 10.8566 8.68429 11.4576 9.28525L19.1862 17.0139C19.7872 17.6149 19.7872 18.5853 19.1862 19.1862C18.5853 19.7872 17.6149 19.7872 17.0139 19.1862L9.28525 11.4576C8.68429 10.8566 8.68429 9.88621 9.28525 9.28525Z" fill="#FFDC7B"/>
<path d="M90.4291 54.1008C90.3896 54.1008 90.3502 54.1106 90.3108 54.1106C91.0694 52.3521 91.498 50.4162 91.498 48.3819C91.498 40.397 85.0254 33.9244 77.0405 33.9244C74.218 33.9244 71.5925 34.7471 69.371 36.1411C66.3613 28.8262 59.1695 23.6737 50.7709 23.6737C39.6631 23.6737 30.6586 32.6782 30.6586 43.786C30.6586 44.6234 30.7276 45.446 30.8261 46.2588C30.7719 46.2588 30.7128 46.2489 30.6586 46.2489C23.2107 46.2489 17.1716 52.2881 17.1716 59.736C17.1716 67.1839 23.2107 73.223 30.6586 73.223H90.434C95.7145 73.223 100 68.9424 100 63.6619C100 58.3814 95.7194 54.0959 90.434 54.0959L90.4291 54.1008Z" fill="white"/>
</svg>
