<svg width="50" height="28" viewBox="0 0 50 28" fill="none" xmlns="http://www.w3.org/2000/svg">
<path d="M46.0742 12.4817C46.0571 12.4817 46.0425 12.4866 46.0254 12.4866C46.3374 11.7653 46.5128 10.9709 46.5128 10.135C46.5128 6.85983 43.8566 4.20363 40.5814 4.20363C39.4239 4.20363 38.3468 4.53992 37.433 5.11502C36.1975 2.11522 33.2488 0 29.8007 0C25.2437 0 21.5494 3.69432 21.5494 8.25129C21.5494 8.59489 21.5762 8.93362 21.6176 9.26747C21.5957 9.26747 21.5713 9.26504 21.5494 9.26504C18.4935 9.26504 16.0152 11.7433 16.0152 14.7992C16.0152 17.8551 18.4935 20.3334 21.5494 20.3334H46.0742C48.2406 20.3334 49.9976 18.5764 49.9976 16.41C49.9976 14.2436 48.2406 12.4866 46.0742 12.4866V12.4817Z" fill="#B9D7FF"/>
<path d="M36.2414 17.6431C36.2219 17.6431 36.2024 17.648 36.1829 17.648C36.5581 16.778 36.7702 15.8203 36.7702 14.8139C36.7702 10.8637 33.5681 7.66161 29.6179 7.66161C28.2216 7.66161 26.9227 8.06857 25.8237 8.75821C24.3347 5.13943 20.7769 2.59045 16.622 2.59045C11.1268 2.59045 6.67219 7.04508 6.67219 12.5403C6.67219 12.9545 6.70631 13.3615 6.75504 13.7636C6.72824 13.7636 6.699 13.7587 6.67219 13.7587C2.98762 13.7587 0 16.7463 0 20.4309C0 24.1155 2.98762 27.1031 6.67219 27.1031H36.2438C38.8561 27.1031 40.9762 24.9854 40.9762 22.3731C40.9762 19.7607 38.8586 17.6407 36.2438 17.6407L36.2414 17.6431Z" fill="white"/>
</svg>
