<svg width="50" height="43" viewBox="0 0 50 43" fill="none" xmlns="http://www.w3.org/2000/svg">
<path d="M39.0158 18.4835C40.4133 18.4835 41.7276 18.1267 42.8784 17.4993C40.9783 19.548 38.2605 20.8266 35.2513 20.8266C29.5005 20.8266 24.838 16.1641 24.838 10.4133C24.838 4.6625 29.4975 0 35.2483 0C38.2605 0 40.9753 1.27862 42.8754 3.32739C41.7276 2.69997 40.4104 2.34315 39.0128 2.34315C34.5555 2.34315 30.9426 5.95599 30.9426 10.4133C30.9426 14.8707 34.5555 18.4835 39.0128 18.4835H39.0158Z" fill="#FFDC7B"/>
<path d="M44.2224 30.9991C44.1986 30.9991 44.1748 31.0051 44.1511 31.0051C44.609 29.9435 44.8677 28.7749 44.8677 27.5468C44.8677 22.7267 40.9605 18.8195 36.1404 18.8195C34.4365 18.8195 32.8516 19.3161 31.5106 20.1576C29.6937 15.7419 25.3524 12.6316 20.2825 12.6316C13.5772 12.6316 8.14154 18.0672 8.14154 24.7725C8.14154 25.278 8.18317 25.7746 8.24264 26.2653C8.20993 26.2653 8.17425 26.2593 8.14154 26.2593C3.64555 26.2593 0 29.9049 0 34.4008C0 38.8968 3.64555 42.5424 8.14154 42.5424H44.2254C47.413 42.5424 50 39.9584 50 36.7708C50 33.5831 47.416 30.9961 44.2254 30.9961L44.2224 30.9991Z" fill="white"/>
</svg>
