<svg width="70" height="66" viewBox="0 0 70 66" fill="none" xmlns="http://www.w3.org/2000/svg">
<path d="M61.9114 25.7104C61.8781 25.7104 61.8448 25.7187 61.8115 25.7187C62.4526 24.2325 62.8148 22.5965 62.8148 20.8772C62.8148 14.1291 57.3446 8.65894 50.5965 8.65894C48.2111 8.65894 45.9923 9.35415 44.1148 10.5323C41.5712 4.35445 35.4933 0 28.3955 0C19.008 0 11.3982 7.60987 11.3982 16.9973C11.3982 17.705 11.4564 18.4002 11.5397 19.0871C11.4939 19.0871 11.4439 19.0788 11.3982 19.0788C5.10378 19.083 0 24.1826 0 30.477C0 36.7713 5.10378 41.8751 11.3982 41.8751H61.9156C66.3782 41.8751 70 38.2575 70 33.7948C70 29.3321 66.3824 25.7104 61.9156 25.7104H61.9114Z" fill="white"/>
<path d="M22.3967 61.7907C21.023 64.6464 17.5969 65.8495 14.7411 64.4758C11.8853 63.102 10.6822 59.6759 12.056 56.8201C13.4297 53.9643 22.3093 48.7398 22.3093 48.7398C22.3093 48.7398 23.7747 58.939 22.4009 61.7948L22.3967 61.7907Z" fill="#B9D7FF"/>
<path d="M36.6672 61.7907C35.2935 64.6464 31.8674 65.8495 29.0116 64.4758C26.1558 63.102 24.9527 59.6759 26.3265 56.8201C27.7003 53.9643 36.5798 48.7398 36.5798 48.7398C36.5798 48.7398 38.0452 58.939 36.6714 61.7948L36.6672 61.7907Z" fill="#B9D7FF"/>
<path d="M51.1377 61.7907C49.7639 64.6464 46.3378 65.8495 43.482 64.4758C40.6263 63.102 39.4232 59.6759 40.7969 56.8201C42.1707 53.9643 51.0503 48.7398 51.0503 48.7398C51.0503 48.7398 52.5156 58.939 51.1419 61.7948L51.1377 61.7907Z" fill="#B9D7FF"/>
</svg>
