<svg width="50" height="50" viewBox="0 0 50 50" fill="none" xmlns="http://www.w3.org/2000/svg">
<path d="M29.5276 34.042C34.5208 31.5405 36.5408 25.4648 34.0393 20.4716C31.5378 15.4784 25.4621 13.4585 20.4689 15.96C15.4757 18.4615 13.4558 24.5372 15.9573 29.5304C18.4588 34.5236 24.5344 36.5435 29.5276 34.042Z" fill="#F8CA4D"/>
<path d="M24.9984 11.0485C24.3291 11.0485 23.785 10.5045 23.785 9.83515V1.21332C23.785 0.544016 24.3291 0 24.9984 0C25.6677 0 26.2117 0.544016 26.2117 1.21332V9.83515C26.2117 10.5045 25.6677 11.0485 24.9984 11.0485Z" fill="#F8CA4D"/>
<path d="M24.9984 50C24.3291 50 23.785 49.456 23.785 48.7867V40.1649C23.785 39.4956 24.3291 38.9515 24.9984 38.9515C25.6677 38.9515 26.2117 39.4956 26.2117 40.1649V48.7867C26.2117 49.456 25.6677 50 24.9984 50Z" fill="#F8CA4D"/>
<path d="M34.8665 15.1335C34.3917 14.6587 34.3917 13.8938 34.8665 13.419L40.9628 7.32276C41.4375 6.84798 42.2025 6.84798 42.6772 7.32276C43.152 7.79754 43.152 8.56245 42.6772 9.03723L36.581 15.1335C36.1062 15.6083 35.3413 15.6083 34.8665 15.1335Z" fill="#F8CA4D"/>
<path d="M7.32279 42.6772C6.84801 42.2024 6.84801 41.4375 7.32279 40.9627L13.4191 34.8665C13.8938 34.3917 14.6588 34.3917 15.1335 34.8665C15.6083 35.3412 15.6083 36.1062 15.1335 36.5809L9.03726 42.6772C8.56249 43.152 7.79757 43.152 7.32279 42.6772Z" fill="#F8CA4D"/>
<path d="M38.9515 24.9984C38.9515 24.3291 39.4956 23.785 40.1649 23.785H48.7867C49.456 23.785 50 24.3291 50 24.9984C50 25.6677 49.456 26.2117 48.7867 26.2117H40.1649C39.4956 26.2117 38.9515 25.6677 38.9515 24.9984Z" fill="#F8CA4D"/>
<path d="M0 24.9984C0 24.3291 0.544016 23.785 1.21332 23.785H9.83515C10.5045 23.785 11.0485 24.3291 11.0485 24.9984C11.0485 25.6677 10.5045 26.2117 9.83515 26.2117H1.21332C0.544016 26.2117 0 25.6677 0 24.9984Z" fill="#F8CA4D"/>
<path d="M34.8665 34.8665C35.3413 34.3917 36.1062 34.3917 36.581 34.8665L42.6772 40.9627C43.152 41.4375 43.152 42.2024 42.6772 42.6772C42.2025 43.152 41.4375 43.152 40.9628 42.6772L34.8665 36.5809C34.3917 36.1062 34.3917 35.3412 34.8665 34.8665Z" fill="#F8CA4D"/>
<path d="M7.32279 7.32276C7.79757 6.84798 8.56249 6.84798 9.03726 7.32276L15.1335 13.419C15.6083 13.8938 15.6083 14.6587 15.1335 15.1335C14.6588 15.6083 13.8938 15.6083 13.4191 15.1335L7.32279 9.03723C6.84801 8.56245 6.84801 7.79754 7.32279 7.32276Z" fill="#F8CA4D"/>
</svg>
